<?xml version="1.0"?><svg id="Icons" viewBox="0 0 24 24" xmlns="http://www.w3.org/2000/svg"><defs><style>.cls-1{fill:#232323;}</style></defs><path class="cls-1" d="M8,0H3A3,3,0,0,0,0,3V8a3,3,0,0,0,3,3H8a3,3,0,0,0,3-3V3A3,3,0,0,0,8,0ZM9,8A1,1,0,0,1,8,9H3A1,1,0,0,1,2,8V3A1,1,0,0,1,3,2H8A1,1,0,0,1,9,3Z"/><path class="cls-1" d="M21,0H16a3,3,0,0,0-3,3V8a3,3,0,0,0,3,3h5a3,3,0,0,0,3-3V3A3,3,0,0,0,21,0Zm1,8a1,1,0,0,1-1,1H16a1,1,0,0,1-1-1V3a1,1,0,0,1,1-1h5a1,1,0,0,1,1,1Z"/><path class="cls-1" d="M8,13H3a3,3,0,0,0-3,3v5a3,3,0,0,0,3,3H8a3,3,0,0,0,3-3V16A3,3,0,0,0,8,13Zm1,8a1,1,0,0,1-1,1H3a1,1,0,0,1-1-1V16a1,1,0,0,1,1-1H8a1,1,0,0,1,1,1Z"/><path class="cls-1" d="M21,13H16a3,3,0,0,0-3,3v5a3,3,0,0,0,3,3h5a3,3,0,0,0,3-3V16A3,3,0,0,0,21,13Zm1,8a1,1,0,0,1-1,1H16a1,1,0,0,1-1-1V16a1,1,0,0,1,1-1h5a1,1,0,0,1,1,1Z"/></svg>